<svg id="visual" viewBox="0 0 3840 2160" width="3840" height="2160" xmlns="http://www.w3.org/2000/svg" xmlns:xlink="http://www.w3.org/1999/xlink" version="1.1"><rect x="0" y="0" width="3840" height="2160" fill="#171717"></rect><path d="M0 1686L42.7 1621.5C85.3 1557 170.7 1428 256 1326.8C341.3 1225.7 426.7 1152.3 512 1202.3C597.3 1252.3 682.7 1425.7 768 1500.3C853.3 1575 938.7 1551 1024 1440.2C1109.3 1329.3 1194.7 1131.7 1280 1085.2C1365.3 1038.7 1450.7 1143.3 1536 1265.7C1621.3 1388 1706.7 1528 1792 1516.8C1877.3 1505.7 1962.7 1343.3 2048 1225.5C2133.3 1107.7 2218.7 1034.3 2304 1123.2C2389.3 1212 2474.7 1463 2560 1497C2645.3 1531 2730.7 1348 2816 1238.7C2901.3 1129.3 2986.7 1093.7 3072 1120.7C3157.3 1147.7 3242.7 1237.3 3328 1299.8C3413.3 1362.3 3498.7 1397.7 3584 1423.7C3669.3 1449.7 3754.7 1466.3 3797.3 1474.7L3840 1483" fill="none" stroke-linecap="round" stroke-linejoin="miter" stroke="#a238ff" stroke-width="12"></path></svg>